<?xml version="1.0" encoding="UTF-8"?>
<svg width="49px" height="31px" viewBox="0 0 49 31" version="1.1" xmlns="http://www.w3.org/2000/svg" xmlns:xlink="http://www.w3.org/1999/xlink">
    <!-- Generator: Sketch 48.2 (47327) - http://www.bohemiancoding.com/sketch -->
    <title>Behance</title>
    <desc>Created with Sketch.</desc>
    <defs></defs>
    <g id="HomePage" stroke="none" stroke-width="1" fill="none" fill-rule="evenodd" transform="translate(-255.000000, -1325.000000)">
        <g id="About-Me" transform="translate(250.000000, 711.000000)" fill="#4A535D" fill-rule="nonzero">
            <path d="M48.7136642,618.903047 L36.5850221,618.903047 L36.5850221,615.890383 L48.7146771,615.890383 L48.7146771,618.903047 L48.7136642,618.903047 Z M28.5107021,631.256991 C29.2932968,632.469147 29.684369,633.940929 29.684369,635.668849 C29.684369,637.45574 29.2434421,639.058743 28.3463954,640.474706 C27.7757113,641.411703 27.0671671,642.203189 26.2158112,642.840383 C25.2569808,643.577287 24.1218021,644.082586 22.8168024,644.352567 C21.5076387,644.622998 20.0906629,644.75962 18.5642994,644.75962 L5,644.75962 L5,614.640865 L19.5456376,614.640865 C23.2120386,614.700511 25.8113468,615.762765 27.3462633,617.848896 C28.2672807,619.128349 28.7236254,620.663603 28.7236254,622.448131 C28.7236254,624.28949 28.2617663,625.762848 27.3317458,626.882271 C26.814405,627.5099 26.0501541,628.080809 25.0384305,628.596125 C26.5708711,629.15713 27.7336218,630.04056 28.5107021,631.256991 Z M11.9461187,626.51517 L18.319415,626.51517 C19.6291414,626.51517 20.6879062,626.266234 21.5033622,625.768588 C22.3182556,625.271729 22.7248582,624.388525 22.7248582,623.120438 C22.7248582,621.719442 22.1864727,620.789534 21.1071132,620.341968 C20.1793435,620.031023 18.9922844,619.87088 17.5519005,619.87088 L11.9461187,619.87088 L11.9461187,626.51517 Z M23.3385322,635.238614 C23.3385322,633.674099 22.6990868,632.592489 21.4227845,632.012127 C20.7090635,631.682276 19.7020665,631.513692 18.4109091,631.501651 L11.9461187,631.501651 L11.9461187,639.528142 L18.3108621,639.528142 C19.6184502,639.528142 20.6305115,639.35697 21.3608882,638.999885 C22.6780421,638.343334 23.3385322,637.093815 23.3385322,635.238614 Z M53.2137525,630.338788 C53.360278,631.324177 53.4265634,632.75387 53.3996666,634.622576 L37.6917284,634.622576 C37.7783833,636.790748 38.5268787,638.306984 39.9464429,639.174658 C40.8025255,639.718783 41.8404707,639.984487 43.0558895,639.984487 C44.3374811,639.984487 45.3820661,639.660487 46.1861557,638.994483 C46.6242692,638.641449 47.0107274,638.143127 47.344855,637.514373 L53.1023391,637.514373 C52.9515372,638.794952 52.2582983,640.093762 51.0124939,641.413617 C49.0823413,643.511452 46.3753334,644.563352 42.8987854,644.563352 C40.0267956,644.563352 37.4956859,643.676209 35.2987038,641.908337 C33.1090367,640.134276 32.0093077,637.257109 32.0093077,633.265921 C32.0093077,629.523219 32.9966105,626.658544 34.9778557,624.664582 C36.966416,622.666906 39.5327504,621.672626 42.696103,621.672626 C44.5711117,621.672626 46.2613316,622.007767 47.7692388,622.681536 C49.2724193,623.355981 50.5147349,624.417447 51.4931471,625.876287 C52.3786022,627.16103 52.9480485,628.646542 53.2137525,630.338788 Z M47.5466371,630.900806 C47.4410757,629.401565 46.9405032,628.266836 46.0391801,627.491331 C45.1452845,626.713688 44.0285622,626.323291 42.696103,626.323291 C41.2459283,626.323291 40.1261674,626.740585 39.3305182,627.560768 C38.5294671,628.379262 38.0310329,629.492046 37.826775,630.900919 L47.5466371,630.900919 L47.5466371,630.900806 Z" id="Behance"></path>
        </g>
    </g>
</svg>