<?xml version="1.0" encoding="iso-8859-1"?>
<!-- Generator: Adobe Illustrator 19.0.0, SVG Export Plug-In . SVG Version: 6.00 Build 0)  -->
<svg version="1.1" id="Capa_1" xmlns="http://www.w3.org/2000/svg" xmlns:xlink="http://www.w3.org/1999/xlink" x="0px" y="0px"
	 viewBox="0 0 512 512" style="enable-background:new 0 0 512 512;" xml:space="preserve">
<rect x="185.459" y="371.367" style="fill:#239999;" width="141.072" height="79.872"/>
<path style="fill:#45B8C4;" d="M443.126,35.288h15.66c29.391,0,53.215,23.823,53.215,53.203v246.288
	c0,29.379-23.823,53.203-53.215,53.203H53.203C23.811,387.981,0,364.158,0,334.779V88.491c0-29.379,23.811-53.203,53.203-53.203
	h12.708"/>
<path style="fill:#EAEAEA;" d="M65.911,75.422H53.203c-7.212,0-13.07,5.869-13.07,13.081v246.265c0,7.212,5.858,13.081,13.07,13.081
	h41.65h319.331h44.601c7.212,0,13.081-5.869,13.081-13.081V88.503c0-7.212-5.869-13.081-13.081-13.081h-15.66H65.911z"/>
<path style="fill:#FFFFFF;" d="M434.307,214.932l4.995-4.995c8.371-8.371,8.371-21.941,0-30.311l-5.153-5.153
	c-8.371-8.371-21.941-8.371-30.311,0l-1.558,1.558c-8.371,8.371-21.941,8.371-30.311,0l-5.153-5.153
	c-8.371-8.371-21.941-8.371-30.311,0l-36.04,36.04c-8.371,8.371-21.941,8.371-30.311,0l-5.153-5.153
	c-8.371-8.371-8.371-21.941,0-30.311l21.411-21.411c8.371-8.371,8.371-21.941,0-30.311l-5.153-5.153
	c-8.371-8.371-21.941-8.371-30.311,0l-67.909,67.909c-8.371,8.371-21.941,8.371-30.311,0l-5.153-5.153
	c-8.371-8.371-8.371-21.941,0-30.311l0,0c8.371-8.371,8.371-21.941,0-30.311l-5.153-5.153c-8.371-8.371-21.941-8.371-30.311,0
	l-33.97,33.968c-8.371,8.371-8.371,21.941,0,30.311l5.153,5.153c8.371,8.371,8.371,21.941,0,30.311l-16.205,16.205
	c-8.371,8.371-8.371,21.941,0,30.311l5.153,5.153c8.371,8.371,21.941,8.371,30.311,0l15.156-15.156
	c8.371-8.371,21.941-8.371,30.311,0l5.153,5.153c8.371,8.371,8.371,21.941,0,30.311l-30.843,30.843
	c-8.371,8.371-8.371,21.942,0,30.311l5.153,5.153c8.371,8.371,21.941,8.37,30.311,0l55.935-55.935
	c8.371-8.371,21.941-8.371,30.311,0l5.153,5.153c8.371,8.371,21.941,8.371,30.311,0l10.44-10.44c8.371-8.371,21.941-8.371,30.311,0
	l5.153,5.153c8.371,8.371,21.941,8.371,30.311,0l3.426-3.426c8.371-8.371,21.941-8.371,30.311,0l5.153,5.153
	c8.371,8.371,21.941,8.371,30.311,0l14.538-14.539c8.371-8.371,8.371-21.941,0-30.311l-5.153-5.153
	C425.936,236.873,425.936,223.302,434.307,214.932z"/>
<path style="fill:#45B8C4;" d="M372.511,476.712H139.489l0,0c0-22.836,18.512-41.35,41.35-41.35h150.324
	C353.999,435.362,372.511,453.875,372.511,476.712L372.511,476.712z"/>
<polygon style="fill:#D8A32E;" points="249.734,271.136 234.875,476.71 95.319,476.71 80.46,271.136 "/>
<polygon style="fill:#FCC63F;" points="249.734,271.136 234.875,476.71 133.98,476.71 124.346,271.136 "/>
<path style="fill:#F9572B;" d="M120.166,271.136c0,0,0,34.482,0,53.29s13.584,33.437,31.347,25.078s13.322,27.69,33.949,27.69
	c30.445,0,28.745-106.057,28.745-106.057"/>
<g>
</g>
<g>
</g>
<g>
</g>
<g>
</g>
<g>
</g>
<g>
</g>
<g>
</g>
<g>
</g>
<g>
</g>
<g>
</g>
<g>
</g>
<g>
</g>
<g>
</g>
<g>
</g>
<g>
</g>
</svg>
